{"title":"Kubo And The Two Strings 2016 Movies HD TS XviD AAC +Sample ☻rDX","uid":15808392,"size":740144009,"categoryP":"video","categoryS":"movies","magnet":"?xt=urn:btih:8ad5f5998dab625d5f036dec5bd0dd09157f6938&amp;dn=Kubo+And+The+Two+Strings+2016+Movies+HD+TS+XviD+AAC+%2BSample+%E2%98%BBrDX&amp;tr=udp%3A%2F%2Ftracker.leechers-paradise.org%3A6969&amp;tr=udp%3A%2F%2Fzer0day.ch%3A1337&amp;tr=udp%3A%2F%2Fopen.demonii.com%3A1337&amp;tr=udp%3A%2F%2Ftracker.coppersurfer.tk%3A6969&amp;tr=udp%3A%2F%2Fexodus.desync.com%3A6969","seeders":21,"leechers":10,"uploader":"basicssom","files":2,"time":1473609759,"description":"----------------------------------------------------------------\r\nKubo And The Two Strings 2016 English Movies HD TS XviD AAC with Sample ☻rDX☻\r\n\r\nSCREEN SHOTS &amp; POSTER:\r\n  \nhttp://postimage.co.nr/2016/9/stock/index.htm  \nhttp://postimage.co.nr/2016/9/stock/1.html  \nhttp://postimage.co.nr/2016/9/stock/2.html  \nhttp://postimage.co.nr/2016/9/stock/3.html  \nhttp://postimage.co.nr/2016/9/stock/4.html  \nhttp://postimage.co.nr/2016/9/stock/5.html  \nhttp://postimage.co.nr/2016/9/stock/6.html  \nhttp://postimage.co.nr/2016/9/stock/7.html  \nhttp://postimage.co.nr/2016/9/stock/8.html  \nhttp://postimage.co.nr/2016/9/stock/9.html  \nhttp://postimage.co.nr/2016/9/stock/10.html\r\n\r\nFormat                                   : Matroska\r\nFormat version                           : Version 4 / Version 2\r\nFile size                                : 698 MiB\r\nDuration                                 : 1 h 31 min\r\nOverall bit rate mode                    : Constant\r\nOverall bit rate                         : 1 061 kb/s\r\nMovie name                               : Kubo And The Two Strings 2016 English Movies HD TS XviD AAC ☻rDX☻\r\n\r\nVideo\r\nID                                       : 2\r\nFormat                                   : AVC\r\nFormat/Info                              : Advanced Video Codec\r\nFormat profile                           :   \r\nFormat settings, CABAC                   : Yes\r\nFormat settings, ReFrames                : 2 frames\r\nFormat settings, GOP                     : M=1, N=12\r\nCodec ID                                 : V_MPEG4/ISO/AVC\r\nDuration                                 : 1 h 31 min\r\nBit rate mode                            : Constant\r\nBit rate                                 : 870 kb/s\r\nWidth                                    : 712 pixels\r\nHeight                                   : 280 pixels\r\nDisplay aspect ratio                     : 2.543\r\nFrame rate mode                          : Constant\r\nFrame rate                               : 29.970 (30000/1001) FPS\r\nColor space                              : YUV\r\nChroma subsampling                       : 4:2:0\r\nBit depth                                : 8 bits\r\nScan type                                : Progressive\r\nBits/(Pixel*Frame)                       : 0.146\r\nStream size                              : 558 MiB (80%)\r\nTitle                                    : ☻rDX☻\r\n\r\nAudio\r\nID                                       : 1\r\nFormat                                   : MPEG Audio\r\nFormat version                           : Version 1\r\nFormat profile                           : Layer 3\r\nCodec ID                                 : A_MPEG/L3\r\nCodec ID/Hint                            : MP3\r\nDuration                                 : 1 h 31 min\r\nBit rate mode                            : Constant\r\nBit rate                                 : 192 kb/s\r\nChannel(s)                               : 2 channels\r\nSampling rate                            : 44.1 kHz\r\nCompression mode                         : Lossy\r\nStream size                              : 126 MiB (18%)\r\nTitle                                    : ☻rDX☻\r\n\r\nIMDB \nhttp://www.imdb.com/title/tt4302938/","torrent":{"xt":"urn:btih:8ad5f5998dab625d5f036dec5bd0dd09157f6938","amp;dn":"Kubo+And+The+Two+Strings+2016+Movies+HD+TS+XviD+AAC+%2BSample+%E2%98%BBrDX","amp;tr":["udp%3A%2F%2Ftracker.leechers-paradise.org%3A6969","udp%3A%2F%2Fzer0day.ch%3A1337","udp%3A%2F%2Fopen.demonii.com%3A1337","udp%3A%2F%2Ftracker.coppersurfer.tk%3A6969","udp%3A%2F%2Fexodus.desync.com%3A6969"],"infoHash":"8ad5f5998dab625d5f036dec5bd0dd09157f6938","infoHashBuffer":{"type":"Buffer","data":[138,213,245,153,141,171,98,93,95,3,109,236,91,208,221,9,21,127,105,56]},"announce":[],"urlList":[]}}